# xmcd CD database file
#
# Track frame offsets:
#	150
#	11511
#	30748
#	55381
#	75479
#	93114
#	123755
#	139867
#	158869
#	180948
#	205386
#
# Disc length: 3033 seconds
#
# Revision: 1
# Processed by: cddbd v1.5.1PL2 Copyright (c) Steve Scherf et al.
# Submitted via: CDex 1.51
#
DISCID=810bd70b
DTITLE=Greg Szlapczynski - Varsovie
DYEAR=2005
DGENRE=Blues
TTITLE0=Pour Alice
TTITLE1=Nowa
TTITLE2=Aux Petits Joueurs
TTITLE3=Stare Miasto
TTITLE4=Lou's Boogaloo
TTITLE5=Yearning for Home
TTITLE6=Varsovie
TTITLE7=Nuages
TTITLE8=Cité des Nuages
TTITLE9=Caméléhomme
TTITLE10=Es Pas
EXTD=YEAR: 2005
EXTT0=
EXTT1=
EXTT2=
EXTT3=
EXTT4=
EXTT5=
EXTT6=
EXTT7=
EXTT8=
EXTT9=
EXTT10=
PLAYORDER=
